<svg width="46" height="44" viewBox="0 0 46 44" fill="none" xmlns="http://www.w3.org/2000/svg">
<path fill-rule="evenodd" clip-rule="evenodd" d="M10.2835 44V14.3117H0.573972V44H10.2835ZM5.42866 10.2583C8.81449 10.2583 10.922 7.97855 10.922 5.12957C10.8589 2.21648 8.81459 0 5.49284 0C2.17159 0 0 2.21648 0 5.12957C0 7.97855 2.107 10.2583 5.36538 10.2583H5.42866Z" fill="white"/>
<path fill-rule="evenodd" clip-rule="evenodd" d="M15.6561 44H25.3655V27.4209C25.3655 26.5335 25.4285 25.6471 25.685 25.0128C26.3869 23.24 27.9844 21.4039 30.6667 21.4039C34.1801 21.4039 35.5855 24.1264 35.5855 28.1175V44H45.2941V26.9772C45.2941 17.8582 40.504 13.6151 34.1159 13.6151C28.8779 13.6151 26.5785 16.5906 25.3009 18.6173H25.3658V14.3117H15.6563C15.7838 17.0975 15.6561 44 15.6561 44Z" fill="white"/>
</svg>
