<svg width="52" height="37" viewBox="0 0 52 37" fill="none" xmlns="http://www.w3.org/2000/svg">
<path d="M34.0678 16.1989L34.0725 16.1806L34.0759 16.1619C34.2801 15.0171 34.7 13.5242 35.5349 12.3291C36.3554 11.1547 37.567 10.2748 39.4151 10.2748C42.2013 10.2748 44.4697 12.5463 44.4699 15.3362C44.4608 18.118 42.1916 20.389 39.4151 20.389C37.3849 20.389 35.451 19.5661 33.6463 18.1639L34.0497 16.2693L34.0678 16.1989ZM28.3605 11.9636C26.1598 8.42894 24.4804 4.34496 23.4633 0.85992L23.3583 0.5H22.9833H17.3686H16.8686V1V15.6316C16.8686 18.2392 14.7433 20.3659 12.1388 20.3659C9.53447 20.3659 7.41121 18.2395 7.41121 15.6316V1V0.5H6.91121H1.29419H0.794194V1V15.6307C0.772979 21.8979 5.86745 27.043 12.1296 27.043C18.3922 27.043 23.4857 21.8974 23.4857 15.6316V15.2613C24.3562 16.8714 25.3563 18.4594 26.5022 19.9286L23.1096 35.8961L22.9813 36.5H23.5987H29.3495H29.7545L29.8386 36.1037L32.1836 25.0471C34.2941 26.2745 36.6975 27.0314 39.4197 27.0314C45.857 27.0314 51.0915 21.7528 51.0915 15.3135V15.3131C51.0867 8.88349 45.8502 3.63926 39.4151 3.63926C34.2642 3.63926 30.2327 6.80402 28.3605 11.9636Z" fill="white" stroke="white"/>
</svg>
