<svg width="37" height="31" viewBox="0 0 37 31" fill="none" xmlns="http://www.w3.org/2000/svg">
<path d="M13.9116 28.7803C12.8061 28.7803 13.0045 28.3606 12.6077 27.325L9.37592 16.802L29.4468 4.43173L31.7997 5.04742L29.8436 10.309L13.9116 28.7803Z" fill="#DADFE3"/>
<path d="M13.9117 28.7794C14.7623 28.7794 15.1308 28.3876 15.6127 27.9398C16.3497 27.2401 25.8181 18.1444 25.8181 18.1444L20.0067 16.7451L14.6205 20.1034L13.9117 28.4996V28.7794Z" fill="#ACADAD"/>
<path d="M14.4787 20.2156L28.1995 30.2069C29.7586 31.0465 30.8926 30.6267 31.2894 28.7796L36.8741 2.80778C37.4411 0.540838 35.9953 -0.466658 34.4929 0.204973L1.72177 12.6871C-0.5178 13.5827 -0.489369 14.8141 1.3249 15.3459L9.74444 17.9487L29.22 5.83036C30.1272 5.27062 30.9776 5.57851 30.2973 6.1942L14.4787 20.2156Z" fill="url(#paint0_linear_95_45)"/>
<defs>
<linearGradient id="paint0_linear_95_45" x1="22.6973" y1="14.4378" x2="29.6543" y2="25.7128" gradientUnits="userSpaceOnUse">
<stop stop-color="#EFF7FC"/>
<stop offset="1" stop-color="white"/>
</linearGradient>
</defs>
</svg>
